<?xml version="1.0" encoding="utf-8"?>
<!-- Generator: Adobe Illustrator 13.0.0, SVG Export Plug-In . SVG Version: 6.00 Build 14948)  -->
<!DOCTYPE svg PUBLIC "-//W3C//DTD SVG 1.1//EN" "http://www.w3.org/Graphics/SVG/1.1/DTD/svg11.dtd">
<svg version="1.1" id="Layer_5" xmlns="http://www.w3.org/2000/svg" xmlns:xlink="http://www.w3.org/1999/xlink" x="0px" y="0px"
	 width="572.321px" height="572.321px" viewBox="0 0 572.321 572.321" enable-background="new 0 0 572.321 572.321"
	 xml:space="preserve">
<g>
	<circle fill="#ED2224" cx="286.16" cy="286.16" r="286.16"/>
	<circle fill="#FFFFFF" cx="286.16" cy="286.16" r="223.133"/>
	<circle fill="#ED2224" cx="286.161" cy="286.159" r="169.523"/>
	<circle fill="#2F4EA1" cx="286.16" cy="286.16" r="114.753"/>
	<polygon fill="#FFFFFF" points="252.563,238.997 285.793,171.664 319.28,239.514 394.157,250.394 339.976,303.208 352.765,377.784 
		285.793,342.574 218.822,377.784 231.612,303.208 177.431,250.394 252.308,239.514 	"/>
	<polygon fill="#E4D7EA" points="286.161,286.16 319.28,239.514 285.793,171.664 	"/>
	<polygon fill="#E4D7EA" points="286.161,286.16 252.308,239.514 177.431,250.394 	"/>
	<polygon fill="#E4D7EA" points="286.161,286.16 231.612,303.208 218.942,377.721 	"/>
	<polygon fill="#E4D7EA" points="286.161,286.16 285.793,342.574 352.624,377.709 	"/>
	<polygon fill="#E4D7EA" points="286.161,286.16 339.994,303.312 394.157,250.394 	"/>
	<path fill="#E4D7EA" d="M424.332,193.784c16.664,25.397,21.285,51.816,20.209,52.522c-1.079,0.708-4.467-24.428-21.13-49.825
		c-16.663-25.397-40.29-41.439-39.215-42.147C385.274,153.628,407.668,168.387,424.332,193.784z"/>
	<path fill="#E4D7EA" d="M147.178,375.547c-16.664-25.396-21.285-51.816-20.209-52.521c1.079-0.707,4.467,24.428,21.13,49.824
		c16.663,25.397,40.29,41.439,39.215,42.146C186.236,415.703,163.841,400.944,147.178,375.547z"/>
	<path fill="#D3B4D6" d="M68.954,318.344c-6.553-45.091,3.911-83.936,5.824-84.213c1.915-0.277-9.415,36.039-2.861,81.128
		c6.553,45.093,28.503,81.877,26.592,82.158C96.597,397.693,75.507,363.434,68.954,318.344z"/>
	<path fill="#E4D7EA" d="M12.169,228.306c13.896-66.921,48.575-116.305,51.413-115.716c2.841,0.591-28.158,41.728-45.653,108.644
		c-17.288,66.125-1.83,134.273-4.667,133.69C10.424,354.332-1.726,295.225,12.169,228.306z"/>
	<path fill="#D3B4D6" d="M502.894,255.927c6.554,45.091-3.912,83.935-5.823,84.214c-1.915,0.275,9.415-36.041,2.859-81.129
		c-6.551-45.092-28.502-81.876-26.592-82.159C475.252,176.578,496.341,210.838,502.894,255.927z"/>
	<path fill="#E4D7EA" d="M560.19,343.366c-13.896,66.922-48.574,116.306-51.413,115.716c-2.841-0.591,31.76-45.971,45.654-112.886
		c13.896-66.92,1.829-130.032,4.667-129.448C561.936,217.341,574.085,276.449,560.19,343.366z"/>
</g>

</svg>
